<svg xmlns="http://www.w3.org/2000/svg" xmlns:xlink="http://www.w3.org/1999/xlink" xmlns:lucid="lucid" width="307" height="277"><g transform="translate(-39 -304)" lucid:page-tab-id="0_0"><path d="M0 0h1000v1000H0z" fill="#fff"/><path d="M60 320h255.8v40H60z" fill="#f2f3f5"/><path d="M60 360h175.8v40H60zM235.8 360h80v40h-80zM60 400h95.8v40H60zM155.8 400h80v40h-80zM235.8 400h80v40h-80zM60 440h95.8v40H60zM155.8 440h80v40h-80zM235.8 440h80v40h-80zM60 480h95.8v40H60zM155.8 480h80v40h-80zM235.8 480h80v40h-80zM60 520h95.8v40H60zM155.8 520h80v40h-80zM235.8 520h80v40h-80z" fill="#fff"/><path d="M60 320v40M315.8 320v40M60 320h255.8M60 360v40M60 360h175.8M235.8 360v40M315.8 360v40M235.8 360h80M60 400v40M60 400h95.8M155.8 400v40M155.8 400h80M235.8 400v40M315.8 400v40M235.8 400h80M60 440v40M60 440h95.8M155.8 440v40M155.8 440h80M235.8 440v40M315.8 440v40M235.8 440h80M60 480v40M60 480h95.8M155.8 480v40M155.8 480h80M235.8 480v40M315.8 480v40M235.8 480h80M60 520v40M60 520h95.8M60 560h95.8M155.8 520v40M155.8 520h80M155.8 560h80M235.8 520v40M315.8 520v40M235.8 520h80M235.8 560h80" stroke="#000" fill="none"/><use xlink:href="#a" transform="matrix(1,0,0,1,65,325) translate(104.05 18.6)"/><use xlink:href="#b" transform="matrix(1,0,0,1,65,365) translate(40.099999999999994 18.6)"/><use xlink:href="#c" transform="matrix(1,0,0,1,240.8,365) translate(3.0249999999999986 18.6)"/><use xlink:href="#d" transform="matrix(1,0,0,1,65,405) translate(38 18.6)"/><use xlink:href="#d" transform="matrix(1,0,0,1,160.8,405) translate(30 18.6)"/><use xlink:href="#d" transform="matrix(1,0,0,1,240.8,405) translate(30 18.6)"/><use xlink:href="#d" transform="matrix(1,0,0,1,65,445) translate(38 18.6)"/><use xlink:href="#e" transform="matrix(1,0,0,1,160.8,445) translate(30 18.6)"/><use xlink:href="#e" transform="matrix(1,0,0,1,240.8,445) translate(30 18.6)"/><use xlink:href="#e" transform="matrix(1,0,0,1,65,485) translate(38 18.6)"/><use xlink:href="#d" transform="matrix(1,0,0,1,160.8,485) translate(30 18.6)"/><use xlink:href="#e" transform="matrix(1,0,0,1,240.8,485) translate(30 18.6)"/><use xlink:href="#e" transform="matrix(1,0,0,1,65,525) translate(38 18.6)"/><use xlink:href="#e" transform="matrix(1,0,0,1,160.8,525) translate(30 18.6)"/><use xlink:href="#e" transform="matrix(1,0,0,1,240.8,525) translate(30 18.6)"/><defs><path d="M205 0l-28-72H64L36 0H1l101-248h38L239 0h-34zm-38-99l-47-123c-12 45-31 82-46 123h93" id="f"/><path d="M190 0L58-211 59 0H30v-248h39L202-35l-2-213h31V0h-41" id="g"/><path d="M30-248c118-7 216 8 213 122C240-48 200 0 122 0H30v-248zM63-27c89 8 146-16 146-99s-60-101-146-95v194" id="h"/><g id="a"><use transform="matrix(0.05,0,0,0.05,0,0)" xlink:href="#f"/><use transform="matrix(0.05,0,0,0.05,12,0)" xlink:href="#g"/><use transform="matrix(0.05,0,0,0.05,24.950000000000003,0)" xlink:href="#h"/></g><path d="M30 0v-248h187v28H63v79h144v27H63v87h162V0H30" id="i"/><path d="M127-220V0H93v-220H8v-28h204v28h-85" id="j"/><path d="M233-177c-1 41-23 64-60 70L243 0h-38l-65-103H63V0H30v-248c88 3 205-21 203 71zM63-129c60-2 137 13 137-47 0-61-80-42-137-45v92" id="k"/><g id="b"><use transform="matrix(0.05,0,0,0.05,0,0)" xlink:href="#i"/><use transform="matrix(0.05,0,0,0.05,12,0)" xlink:href="#g"/><use transform="matrix(0.05,0,0,0.05,24.950000000000003,0)" xlink:href="#j"/><use transform="matrix(0.05,0,0,0.05,35.900000000000006,0)" xlink:href="#k"/><use transform="matrix(0.05,0,0,0.05,48.85000000000001,0)" xlink:href="#f"/><use transform="matrix(0.05,0,0,0.05,60.85,0)" xlink:href="#h"/><use transform="matrix(0.05,0,0,0.05,73.80000000000001,0)" xlink:href="#f"/></g><path d="M185-189c-5-48-123-54-124 2 14 75 158 14 163 119 3 78-121 87-175 55-17-10-28-26-33-46l33-7c5 56 141 63 141-1 0-78-155-14-162-118-5-82 145-84 179-34 5 7 8 16 11 25" id="l"/><path d="M30 0v-248h33v221h125V0H30" id="m"/><path d="M33 0v-248h34V0H33" id="n"/><g id="c"><use transform="matrix(0.05,0,0,0.05,0,0)" xlink:href="#l"/><use transform="matrix(0.05,0,0,0.05,12,0)" xlink:href="#f"/><use transform="matrix(0.05,0,0,0.05,24,0)" xlink:href="#m"/><use transform="matrix(0.05,0,0,0.05,34,0)" xlink:href="#n"/><use transform="matrix(0.05,0,0,0.05,39,0)" xlink:href="#h"/><use transform="matrix(0.05,0,0,0.05,51.95,0)" xlink:href="#f"/></g><path d="M27 0v-27h64v-190l-56 39v-29l58-41h29v221h61V0H27" id="o"/><use transform="matrix(0.05,0,0,0.05,0,0)" xlink:href="#o" id="d"/><path d="M101-251c68 0 85 55 85 127S166 4 100 4C33 4 14-52 14-124c0-73 17-127 87-127zm-1 229c47 0 54-49 54-102s-4-102-53-102c-51 0-55 48-55 102 0 53 5 102 54 102" id="p"/><use transform="matrix(0.05,0,0,0.05,0,0)" xlink:href="#p" id="e"/></defs></g></svg>