<svg xmlns="http://www.w3.org/2000/svg" xmlns:xlink="http://www.w3.org/1999/xlink" xmlns:lucid="lucid" width="287" height="274"><g transform="translate(-384 -306)" lucid:page-tab-id="0_0"><path d="M0 0h1000v1000H0z" fill="#fff"/><path d="M400 320h255.8v40H400z" fill="#f2f3f5"/><path d="M400 360h175.8v40H400zM575.8 360h80v40h-80zM400 400h95.8v40H400z" fill="#fff"/><path d="M495.8 400h80v40h-80zM575.8 400h80v40h-80zM400 440h95.8v40H400z" fill="#fff"/><path d="M495.8 440h80v40h-80zM575.8 440h80v40h-80zM400 480h95.8v40H400z" fill="#fff"/><path d="M495.8 480h80v40h-80zM575.8 480h80v40h-80zM400 520h95.8v40H400z" fill="#fff"/><path d="M495.8 520h80v40h-80zM575.8 520h80v40h-80z" fill="#fff"/><path d="M400 320v40M655.8 320v40M400 320h255.8M400 360v40M400 360h175.8M575.8 360v40M655.8 360v40M575.8 360h80M400 400v40M400 400h95.8M495.8 400v40M495.8 400h80M575.8 400v40M655.8 400v40M575.8 400h80M400 440v40M400 440h95.8M495.8 440v40M495.8 440h80M575.8 440v40M655.8 440v40M575.8 440h80M400 480v40M400 480h95.8M495.8 480v40M495.8 480h80M575.8 480v40M655.8 480v40M575.8 480h80M400 520v40M400 520h95.8M400 560h95.8M495.8 520v40M495.8 520h80M495.8 560h80M575.8 520v40M655.8 520v40M575.8 520h80M575.8 560h80" stroke="#000" fill="none"/><use xlink:href="#a" transform="matrix(1,0,0,1,405,325) translate(109.525 18.6)"/><use xlink:href="#b" transform="matrix(1,0,0,1,405,365) translate(40.099999999999994 18.6)"/><use xlink:href="#c" transform="matrix(1,0,0,1,580.8,365) translate(3.0249999999999986 18.6)"/><use xlink:href="#d" transform="matrix(1,0,0,1,405,405) translate(38 18.6)"/><use xlink:href="#d" transform="matrix(1,0,0,1,500.8,405) translate(30 18.6)"/><use xlink:href="#d" transform="matrix(1,0,0,1,580.8,405) translate(30 18.6)"/><use xlink:href="#d" transform="matrix(1,0,0,1,405,445) translate(38 18.6)"/><use xlink:href="#e" transform="matrix(1,0,0,1,500.8,445) translate(30 18.6)"/><use xlink:href="#e" transform="matrix(1,0,0,1,580.8,445) translate(30 18.6)"/><use xlink:href="#e" transform="matrix(1,0,0,1,405,485) translate(38 18.6)"/><use xlink:href="#d" transform="matrix(1,0,0,1,500.8,485) translate(30 18.6)"/><use xlink:href="#e" transform="matrix(1,0,0,1,580.8,485) translate(30 18.6)"/><use xlink:href="#e" transform="matrix(1,0,0,1,405,525) translate(38 18.6)"/><use xlink:href="#e" transform="matrix(1,0,0,1,500.8,525) translate(30 18.6)"/><use xlink:href="#e" transform="matrix(1,0,0,1,580.8,525) translate(30 18.6)"/><defs><path d="M140-251c81 0 123 46 123 126C263-46 219 4 140 4 59 4 17-45 17-125s42-126 123-126zm0 227c63 0 89-41 89-101s-29-99-89-99c-61 0-89 39-89 99S79-25 140-24" id="f"/><path d="M233-177c-1 41-23 64-60 70L243 0h-38l-65-103H63V0H30v-248c88 3 205-21 203 71zM63-129c60-2 137 13 137-47 0-61-80-42-137-45v92" id="g"/><g id="a"><use transform="matrix(0.05,0,0,0.05,0,0)" xlink:href="#f"/><use transform="matrix(0.05,0,0,0.05,14,0)" xlink:href="#g"/></g><path d="M30 0v-248h187v28H63v79h144v27H63v87h162V0H30" id="h"/><path d="M190 0L58-211 59 0H30v-248h39L202-35l-2-213h31V0h-41" id="i"/><path d="M127-220V0H93v-220H8v-28h204v28h-85" id="j"/><path d="M205 0l-28-72H64L36 0H1l101-248h38L239 0h-34zm-38-99l-47-123c-12 45-31 82-46 123h93" id="k"/><path d="M30-248c118-7 216 8 213 122C240-48 200 0 122 0H30v-248zM63-27c89 8 146-16 146-99s-60-101-146-95v194" id="l"/><g id="b"><use transform="matrix(0.05,0,0,0.05,0,0)" xlink:href="#h"/><use transform="matrix(0.05,0,0,0.05,12,0)" xlink:href="#i"/><use transform="matrix(0.05,0,0,0.05,24.950000000000003,0)" xlink:href="#j"/><use transform="matrix(0.05,0,0,0.05,35.900000000000006,0)" xlink:href="#g"/><use transform="matrix(0.05,0,0,0.05,48.85000000000001,0)" xlink:href="#k"/><use transform="matrix(0.05,0,0,0.05,60.85,0)" xlink:href="#l"/><use transform="matrix(0.05,0,0,0.05,73.80000000000001,0)" xlink:href="#k"/></g><path d="M185-189c-5-48-123-54-124 2 14 75 158 14 163 119 3 78-121 87-175 55-17-10-28-26-33-46l33-7c5 56 141 63 141-1 0-78-155-14-162-118-5-82 145-84 179-34 5 7 8 16 11 25" id="m"/><path d="M30 0v-248h33v221h125V0H30" id="n"/><path d="M33 0v-248h34V0H33" id="o"/><g id="c"><use transform="matrix(0.05,0,0,0.05,0,0)" xlink:href="#m"/><use transform="matrix(0.05,0,0,0.05,12,0)" xlink:href="#k"/><use transform="matrix(0.05,0,0,0.05,24,0)" xlink:href="#n"/><use transform="matrix(0.05,0,0,0.05,34,0)" xlink:href="#o"/><use transform="matrix(0.05,0,0,0.05,39,0)" xlink:href="#l"/><use transform="matrix(0.05,0,0,0.05,51.95,0)" xlink:href="#k"/></g><path d="M27 0v-27h64v-190l-56 39v-29l58-41h29v221h61V0H27" id="p"/><use transform="matrix(0.05,0,0,0.05,0,0)" xlink:href="#p" id="d"/><path d="M101-251c68 0 85 55 85 127S166 4 100 4C33 4 14-52 14-124c0-73 17-127 87-127zm-1 229c47 0 54-49 54-102s-4-102-53-102c-51 0-55 48-55 102 0 53 5 102 54 102" id="q"/><use transform="matrix(0.05,0,0,0.05,0,0)" xlink:href="#q" id="e"/></defs></g></svg>